<?xml version="1.0" encoding="utf-8"?>
<!-- Generator: Adobe Illustrator 15.0.2, SVG Export Plug-In . SVG Version: 6.00 Build 0)  -->
<!DOCTYPE svg PUBLIC "-//W3C//DTD SVG 1.1//EN" "http://www.w3.org/Graphics/SVG/1.1/DTD/svg11.dtd">
<svg version="1.1" id="Layer_1" xmlns="http://www.w3.org/2000/svg" xmlns:xlink="http://www.w3.org/1999/xlink" x="0px" y="0px"
	 width="500px" height="400px" viewBox="0 0 500 400" enable-background="new 0 0 500 400" xml:space="preserve">
<g>
	<g>
		<g>
			<path fill="#CABC70" d="M335.883,216.551c-5.707-5.818-1.033-12.316-1.033-12.316s-4.561,2.154-8.148-7.491
				c-3.938-10.572,1.512-13.697,1.512-13.697s-5.115,0.013-5.656-9.972c-0.514-9.533,3.838-11.247,3.838-11.247
				s-4.494,0.692-3.838-11.72c0.477-8.954,6.479-9.121,6.479-9.121s-6.609-2.537-1.416-15.23c3.969-9.694,7.822-7.87,8.777-7.214
				c-0.686-0.621-2.467-3.186,1.867-11.122c2.037-3.733,7.027-3.672,7.396-3.903c-4.982-24.872-37.393-24.323-45.496-24.675
				c-19.385-1.964-37.816,11.411-47.648,11.411c-9.816,0-24.993-11.111-41.056-10.812c-21.13,0.304-40.596,12.278-51.485,31.182
				c-21.932,38.089-10.25,99.129,11.13,130.021c10.453,15.098,27.546,27.451,43.926,26.836c15.761-0.615,21.715-4.568,40.755-4.568
				c19.047,0,24.406,4.568,41.07,4.25c16.969-0.297,32.359-11.713,40.406-28.227c9.684-19.863,9.391-18.984,9.684-19.863
				C346.816,219.01,342.947,223.754,335.883,216.551z"/>
		</g>
	</g>
	<path fill="#CABC70" d="M249.484,92.952c0,0-17.831-32.437-26.368-32.32c-1.087,0.014,1.087,1.161,1.544,2.229
		c0.445,1.039-9.224,0.805-8.09,1.359c7.885,3.855,23.144,15.762,27.193,30.748C249.288,115.401,249.484,92.952,249.484,92.952z"/>
	<path fill="#CABC70" d="M242.774,104.534c0,0,2.072-29.45,7.397-35.601c12.495-14.434,28.28-14.621,28.28-14.621
		s2.83,16.004-4.699,26.392C262.814,95.796,242.774,104.534,242.774,104.534z"/>
	<g>
		<path fill="#CABC70" d="M315.621,364.74c-2.641,2.033-6.543,2.805-9.795,4.072c-2.395-0.465-38.041-20.854-53.451-25.926
			c-17.708,7.133-35.188,14.953-50.597,26.453l4.36,0.006c-3.623,0.654-15.859-2.998-19.54-3.227
			c16.331-12.191,36.11-20.238,55.2-27.6c-6.9-2.299-13.799-5.521-21.161-6.672c-17.708,8.973-41.167,18.172-60.946,8.049
			c-5.06-2.066-9.889-3.904-14.948-5.746c14.948-4.602,29.896-12.189,47.146-12.881c-8.047-3.221-18.859-2.072-27.829,0.461
			c-11.27,3.219-21.157,10.578-34.497,7.359c-11.271-2.068-20.93-7.129-30.129-14.029v-0.92c17.249,3.449,34.268-2.533,51.977-2.533
			c-15.179-11.266-34.498,2.072-52.207-1.838c-13.799-3.219-19.778-12.188-28.748-22.998c14.029,7.59,34.038,1.379,48.297,7.59
			c-12.65-17.709-38.637-2.529-52.897-18.861c-7.358-7.127-13.569-16.096-17.249-26.445c3.911,2.988,8.969,6.439,14.259,7.818
			c9.201,2.07,18.399,4.83,26.679,8.74c-8.28-15.178-27.829-12.648-38.868-23.457c-10.119-8.742-13.799-20.469-15.409-33.35
			c7.59,12.42,25.528,12.65,34.498,24.607c-3.91-19.318-30.357-16.559-34.037-36.798c-1.15-6.67-1.611-14.72-0.461-21.156
			c1.38,1.607,1.38,4.829,2.99,7.128c5.979,9.659,17.021,15.178,22.539,25.299c1.38-16.099-18.858-19.09-20.928-33.809
			c-2.53-10.119-1.149-20.239,0-30.128c2.99,14.489,11.269,25.529,19.319,37.488c1.609-16.559-17.02-23.921-15.639-40.478
			c0-8.739,1.609-16.559,4.83-23.918c1.379,2.069,0.688,5.747,1.61,8.279c5.52,11.499,7.359,24.146,10.349,36.568
			c5.06-14.72-2.99-27.828-6.669-41.168c-1.84-9.429,0.458-18.859,4.37-26.218c0,13.109,6.899,23.229,8.279,35.877h0.692
			c1.838-9.889-3.222-17.708-3.91-27.138c-2.073-11.96,2.529-22.77,7.358-31.739l0.69,0.921c2.759,12.879,1.15,28.058,2.3,40.937
			l0.918-0.689c5.521-13.57-2.529-28.52,2.3-42.549c1.381-5.289,4.141-10.808,7.591-15.177c-0.691,12.88,0.459,27.828-1.841,41.167
			c8.74-8.74,2.531-24.379,7.36-35.648c1.84-5.98,4.832-12.42,8.509-17.021c0.461,10.58,0.92,19.78-2.3,28.979
			c9.429-8.28,1.38-24.149,11.269-33.12l8.51-8.738c0,6.899-1.838,14.028-4.598,20.238c7.359-8.74,11.04-25.757,26.447-26.677
			c0.459,5.519-2.988,9.428-5.52,13.799c-5.98,7.129-15.179,9.89-21.39,18.169c7.13-4.371,14.722-10.58,23.46-11.04
			c-3.681,13.569-18.858,18.858-31.049,24.148c-2.759,1.841-4.14,4.141-5.519,6.441c5.751-5.291,14.259-7.589,22.308-8.74
			c-5.52,9.2-15.638,16.099-26.676,19.089c-3.911,2.759-5.292,5.29-7.36,9.43c7.818-5.749,17.708-10.58,27.368-13.57
			c-4.829,9.661-12.42,21.16-24.148,22.54c-7.131,0-11.039,5.059-13.569,10.81v0.919c6.208-5.521,14.948-10.12,23.688-11.5
			c0.69-0.229,1.38-0.229,1.839-0.69c-5.75,12.42-17.938,20.239-29.897,25.3c-2.531,2.299-3.451,6.437-4.6,9.66
			c6.67-6.9,14.259-13.11,24.149-16.559l3.448-2.992c-0.69,4.601-3.679,8.741-5.979,12.42
			c-6.899,12.879-25.067,12.189-24.838,28.519c5.059-9.889,14.719-13.109,22.078-19.779c-4.599,13.111-9.429,25.76-21.158,34.496
			c-1.841,4.142-3.68,8.512-2.53,13.569c3.219-11.038,12.189-19.549,20.007-28.055c2.532,13.799-2.758,26.907-11.498,36.566
			c-3.91,3.91-5.979,8.968-5.75,14.72c1.379-1.611,2.532-4.604,4.14-7.131c5.29-7.129,14.03-13.107,14.26-23
			c2.071,1.149,0.459,3.45,1.38,5.293c4.599,16.328-10.81,27.599-12.42,42.544c0.231,4.141,2.529,7.359,4.37,10.811
			c0.459-13.799,5.06-25.756,10.349-37.258c5.979,11.502,8.509,28.059,2.99,40.939c-1.15,3.68-2.99,7.588-1.61,11.73
			c1.84,4.367,4.37,8.508,7.129,12.188c-3.448-13.57-0.457-28.289,0.46-41.168c4.831,9.43,11.73,19.088,14.95,29.209h1.152
			c-1.841,0.459-0.231,1.838-0.231,2.758c2.989,9.889-1.61,21.852,5.52,30.131c3.451,2.529,5.52,5.061,9.431,6.9
			c-3.222-6.213-8.741-13.111-9.431-20.934c-0.23-7.586-1.609-15.637-2.988-22.537c12.648,9.889,21.619,24.15,25.756,39.559
			c4.83,9.428,12.42,18.168,23.229,20.24c-11.267-10.812-21.618-23.229-25.529-38.639l-3.219-4.832
			c14.26,6.209,30.358,16.559,37.258,32.43c4.601,9.199,12.878,17.939,24.608,17.939c-13.108-10.121-24.149-23-31.049-38.178
			c15.181,9.199,38.408,10.119,45.998,28.977c3.91,5.752,5.061,14.49,12.419,16.561c10.579,1.842,20.469,5.979,30.587,8.279
			l25.99-7.818c8.049-8.973,12.65-20.928,23.229-29.436c9.891-8.746,22.309-13.113,34.729-15.643
			c-6.9,14.486-19.779,25.986-29.439,38.637c15.408-2.76,20.93-16.559,27.137-28.75c8.281-10.807,19.092-19.09,31.051-24.148
			c-4.83,16.104-11.268,31.279-24.84,43.469c7.82-1.609,15.412-6.438,19.779-13.799c4.141-14.027,7.129-30.357,18.861-39.559
			l9.889-7.361c-0.461,2.303-1.383,5.293-2.301,8.051c-2.07,10.812-1.84,22.541-6.441,32.199
			c16.793-5.752,6.67-24.607,10.584-37.715c1.146-11.502,8.047-20.701,15.865-28.752c-1.611,13.801,2.068,29.211-1.152,43.008
			c3.684-5.059,9.432-9.889,10.123-17.48c-4.371-15.408-7.361-35.186,1.379-49.903c2.299,4.368,3.221,10.118,5.521,14.95
			c2.529,5.289,3.908,11.268,5.289,17.016c8.512-19.777-17.02-34.265-7.359-55.885c3.908,11.271,16.559,20.006,15.871,34.268
			c6.438-20.011-19.553-29.438-13.801-50.595l1.146-3.914c6.902,8.97,15.18,17.021,17.711,28.519
			c1.15-21.157-21.619-28.977-22.08-50.365c10.582,4.829,17.943,13.799,23.689,23.916c0.232-11.497-9.199-18.626-17.707-23.916
			v-0.691c-2.301-0.689-5.061-4.6-6.9-7.129l-5.75-11.958l0.689-0.231c10.582,2.07,18.861,11.269,26.449,18.169
			c-5.287-18.399-28.979-16.791-32.887-36.338c6.207,6.208,16.328,7.819,23.918,11.27c-3.91-12.88-20.471-8.051-27.139-18.628
			c-2.07-2.99-4.371-5.981-5.521-9.2c9.658,2.069,18.168,5.979,26.68,11.729c-6.209-10.121-21.848-11.729-30.359-20.47
			c-1.379-2.758-3.91-4.828-5.057-7.819c9.656,0,17.479,5.289,24.605,10.58c0-1.381-1.611-3.451-2.527-5.059
			c-8.279-8.74-26.219-6.441-30.361-20.01l-1.838-6.67c5.98,6.899,13.57,8.278,20.926,11.729
			c-6.666-10.119-20.008-12.189-23.914-24.378c-1.15-3.22-2.072-7.359-2.994-10.12c14.721,5.751,23.002,19.55,29.211,33.119
			c-1.381-8.279-6.209-15.64-5.518-24.839c10.805,7.13,11.725,21.849,14.029,34.499c1.375,2.759,2.76,5.98,4.367,8.51
			c-3.451-9.199-3.908-19.779-1.607-30.129c2.066,1.61,3.678,4.14,5.055,6.669c7.822,13.341-2.295,30.359,7.592,42.547
			c-0.461-7.128-3.219-15.868-0.232-23.228c1.613-3.45,2.301-7.129,2.992-10.809h1.152c6.209,12.878,5.748,29.898,1.377,43.697
			c0.463,2.989,0.918,6.439,2.531,8.97c1.15-12.879,4.139-25.299,5.748-37.718c9.66,12.879,6.67,32.198,0.461,46.457
			c-0.461,3.219-0.23,6.9,0.92,9.89c1.381-13.799,8.969-24.839,11.502-38.177h0.916c2.531,10.118,5.982,22.309,0.232,31.967
			c-5.289,9.66-10.121,19.319-9.66,31.51c2.76-3.681,3.449-9.891,5.752-14.49c3.908-7.36,6.898-14.951,9.658-22.769
			c3.447,9.2,6.9,22.538,0.457,31.508c-7.588,10.35-14.949,21.62-16.094,35.418h0.459c5.52-13.799,14.256-25.299,23.227-36.338
			c0.229-0.46,0-1.61,0.92-1.379c-0.691,12.879-0.92,26.448-9.432,35.417c-7.359,6.899-15.635,15.182-18.398,25.988
			c7.361-13.569,22.539-19.778,28.979-32.887c0.691,15.18-3.217,32.197-17.939,38.637c-9.197,4.371-18.859,10.811-21.156,21.619
			c7.818-10.809,18.168-16.098,29.666-21.158l8.051-5.75c-2.07,14.258-9.889,29.668-22.082,38.869
			c-11.727,6.666-26.676,7.355-34.037,20.697c12.422-8.279,29.211-8.279,40.25-19.549h0.688
			c-4.828,13.799-14.254,28.289-28.516,34.729c-12.65,4.826-28.518,1.377-39.1,10.578c14.031-2.758,31.74-0.689,44.85-7.129
			c-8.971,12.189-23.459,26.221-42.088,23.918c-11.498,1.381-24.379-2.758-34.496,2.529c15.176-0.92,30.125,5.291,45.074,1.838v1.15
			c-9.889,13.801-28.746,17.941-45.996,14.033c-12.65-4.6-27.369-9.66-41.168-4.139c17.02,0.689,32.43,4.596,46.457,11.957
			c-13.566,4.6-27.139,9.66-42.088,8.277c-10.117-0.457-19.775-2.758-28.061-7.818c-8.277-2.986-16.098,1.842-23.688,3.451
			c9.432,4.83,21.16,8.971,31.049,14.49C302.975,356.689,309.875,359.908,315.621,364.74L315.621,364.74z"/>
	</g>
</g>
</svg>
